<svg width="24" height="24" viewBox="0 0 24 24" fill="none" xmlns="http://www.w3.org/2000/svg">
<path d="M0 2C0 0.89543 0.895431 0 2 0H22C23.1046 0 24 0.895431 24 2V22C24 23.1046 23.1046 24 22 24H2C0.89543 24 0 23.1046 0 22V2Z" fill="url(#paint0_linear_781_7374)"/>
<path d="M7.44368 7.93825C6.18544 9.18947 6.18544 11.2179 7.44368 12.4691L11.2949 16.2988C11.6849 16.6867 12.3151 16.6867 12.7051 16.2988L16.5563 12.4691C17.8146 11.2179 17.8146 9.18947 16.5563 7.93825C15.2981 6.68729 13.2582 6.68729 12 7.93825C10.7418 6.68729 8.70193 6.68729 7.44368 7.93825Z" fill="#B2B2B2"/>
<defs>
<linearGradient id="paint0_linear_781_7374" x1="0" y1="0" x2="24" y2="24" gradientUnits="userSpaceOnUse">
<stop stop-color="#2E10A9"/>
<stop offset="1" stop-color="#7E9C95"/>
</linearGradient>
</defs>
</svg>
